<svg xmlns="http://www.w3.org/2000/svg" viewBox="0 0 240 48"><path d="M4 48V30l38-6-38-6V0l56 24L4 48zM80 4h2c4.4185 0 8 3.582 8 8v8c0 4.418-3.5815 8-8 8h-2v16h-6V4h6zm4 16v-8c0-1.103-.897-2-2-2h-2v12h2c1.103 0 2-.897 2-2zm22 24l-4.435-17H100v17h-6V4h9c4.418 0 7 3.582 7 8v7c0 2.4855-1.1335 4.706-2.9115 6.1735L112 44h-6zm-6-34v11h2c1.103 0 2-.897 2-2v-7c0-1.103-.897-2-2-2h-2zm14 34V4h6v40h-6zm20-40h6l-6 40h-6l-6-40h6l3 24 3-24zm20.2105 0L160 44h-6.3158l-1.0658-9h-5.2368l-1.0658 9H140l5.7895-40h8.421zm-6.2368 26h4.0526L150 12.889 147.9737 30zM158 4h16v6h-5v34h-6V10h-5V4zm32 6h-8v11h8v6h-8v11h8v6h-14V4h14v6zm26 7.3415h-6V11.195c0-1.1103-.916-2.0487-2-2.0487s-2 .9384-2 2.0488v3.5855c0 2.4488 2.6995 5.73 4.007 6.935.613.566 5.993 5.6932 5.993 11.504v3.5854c0 4.5072-3.6 8.195-8 8.195s-8-3.6878-8-8.195v-6.1465h6v6.1464c0 1.1103.916 2.0487 2 2.0487s2-.9384 2-2.0488v-3.5855c0-2.4488-2.6995-5.73-4.007-6.935-.613-.566-5.993-5.6932-5.993-11.504V11.195C200 6.688 203.6 3 208 3s8 3.6878 8 8.195v6.1465zm20 0h-6V11.195c0-1.1103-.916-2.0487-2-2.0487s-2 .9384-2 2.0488v3.5855c0 2.4488 2.6995 5.73 4.007 6.935.613.566 5.993 5.6932 5.993 11.504v3.5854c0 4.5072-3.6 8.195-8 8.195s-8-3.6878-8-8.195v-6.1465h6v6.1464c0 1.1103.916 2.0487 2 2.0487s2-.9384 2-2.0488v-3.5855c0-2.4488-2.6995-5.73-4.007-6.935-.613-.566-5.993-5.6932-5.993-11.504V11.195C220 6.688 223.6 3 228 3s8 3.6878 8 8.195v6.1465z"/></svg>
