<svg xmlns="http://www.w3.org/2000/svg" viewBox="0 0 88 32"><path fill="#009FE8" d="M25.6 19.8c4.3 1.4 5.3 1.5 5.3 1.5V5.9c0-2.6-2.1-4.8-4.8-4.8H5.8C3.1 1.1 1 3.2 1 5.9v20.2c0 2.6 2.1 4.8 4.8 4.8h20.3c2.6 0 4.8-2.1 4.8-4.8v-.2s-7.8-3.2-11.7-5.1c-2.6 3.2-6 5.2-9.5 5.2s-6-2-6.3-4.2c0 0-.8-2.2 1.1-4.5.6-.7 1.7-1.5 3.3-1.9 2.5-.6 6.6.4 10.4 1.6.7-1.3 1.3-2.6 1.7-4.1H8.1v-1.2h6v-2H6.8V8.6h7.3v-3s0-.5.5-.5h2.9v3.5h7.2v1.2h-7.2v2.1h5.9c-.6 2.3-1.4 4.4-2.5 6.3 1.9.6 3.5 1.2 4.7 1.6zM8.3 17.3c-.7.1-2.1.4-2.9 1.1-2.4 2-1 5.6 3.7 5.6 2.7 0 5.4-1.7 7.5-4.5-3-1.4-5.6-2.5-8.3-2.2z"/><path fill="#3E3A39" d="M52.5 18.5c-2.5-.9-4.5-1.9-6.1-2.9 2.3-1.7 4.3-4 5.1-7.1h-5.3V6.7h6.2V5.5h-6.2V3.1h-2.7c-.3 0-.5.3-.5.6v1.9h-6.1v1.2H43v1.9h-5.2v1.2H48s-.6 2.2-3.4 4.6c-2.5-1.9-3.4-3.4-3.4-3.4h-2.8c1.1 1.9 2.7 3.5 4.4 4.7-1.6 1-3.6 2-6.2 2.8V20s4.1-.8 8-3.1c3.9 2.3 7.9 3.1 7.9 3.1v-1.5zM74.9 5.8h8.7v1.7h3.1v-2c0-.5-.4-.8-.8-.8h-5V3h-3.2v1.6h-5.8v2.9H75V5.8zM57.3 29h1.2v-6.9h-1.2V29zM86 15.9c-.1-.2-.3-.4-.5-.4H83l.7 2.5h-3v-4.9h6V12h-6V9.7h6V8.6H71.8v1.2h6V12h-6v1.2h6v4.9h-6v1.2H87l-1-3.4zm-45 6.2L38.4 29h1.3l.5-1.4h2.5l.5 1.4h1.3L42 22.1h-1zm-.5 4.6l1-2.9 1 2.9h-2zm9.3-4.6h-1.2V29h4.2v-1h-2.9v-5.9zm24.2 0L71.5 29h1.3l.5-1.4h2.5l.5 1.4h1.3L75 22.1h-1zm-.5 4.6l1-2.9 1 2.9h-2zm-20.6-16h2.4v9H58V7.8h-1l2-4.6h-3l-3.1 7.5zM83.1 25l-1.4-2.9h-1.3l2.1 4.1V29h1.2v-2.8l2.1-4.1h-1.3L83.1 25zM68.7 3.3H66v2.9h-6.8v1.2H66v10.4c0 .2-.2.4-.4.4h-1.4v1.2h3.6c.6 0 1-.5 1-1.1v-11h1.1V6.2h-1.1V3.3zm-5.8 6c-.1-.2-.3-.3-.5-.3H60l1.8 5.7h2.7l-1.6-5.4zm3.3 12.8h-2.7V29h1.2v-2.7h1.4c1.3 0 2.3-.9 2.3-2.1.1-1.2-.8-2.1-2.2-2.1zm-.1 3.3h-1.4V23h1.4c.7 0 1.1.6 1.1 1.2s-.3 1.2-1.1 1.2z"/></svg>
