<svg xmlns="http://www.w3.org/2000/svg" viewBox="0 0 3963.9 1000.7"><path fill="#1AAD19" d="M364.5 617.4c-4.5 2.3-9.6 3.6-15 3.6-12.5 0-23.4-7-29-17l-2.3-5-91-199.8c-1-2.2-1.7-4.6-1.7-7 0-9.2 7.5-16.7 16.7-16.7 3.7 0 7.2 1.2 10 3.3l107.5 76.6c7.8 5 17.2 8 27.3 8 6 0 11.8-1 17-3l505.7-225C819 128.6 669.7 58.8 501 58.8 224.5 58.8.4 245.5.4 475.8.4 601.5 68 714.6 173.4 791c8.5 6 14 16 14 27.2 0 3.7-1 7-1.7 10.6L163 913c-1 4-2.6 8-2.6 12 0 9.4 7.5 17 16.7 17 4 0 7-1.5 10-3.2l110-63.3c9-4.8 17-7.7 27-7.7 5 0 10 .8 15 2.2 51 14.7 106 23 163.8 23 276 0 500-187 500-417.2 0-69.7-20.6-135.4-57-193.2L368 615.3l-3.5 2z"/><path fill="#231815" d="M2206.3 355.3h375.3V389h-375.3v-33.7zm0 105.2h375.3v36.3h-375.3v-36.3zm366 311V568.2h-356.5v203h356.4zM2252 601.8h284v135.8h-284v-136zm-148.8 190.6V325c21.3-45.8 40-95.2 55.6-145.3l-33.6-19.3c-33 116.7-81.7 222.8-142.7 311.7l20 35c21.2-31 43.5-68 64.5-106v392h36.2zm1364 0V325c21.2-45.8 40-95.2 55.5-145.3l-33.6-19.3c-33 116.6-81 222.8-142 311.6l20 35c22-31.4 44-68 65-106.6V793h37zm-846-545h-220.7L2424 234l.8-.4-.4-.8c-2.7-6.3-9.7-21-17.2-36.6-7-14.6-14-29.6-17.5-37.3l-.5-2-33.4 19 .5 1c12 22 22.3 43 31.5 63l2.4 6h-220.7v37H2621v-36zm-969-27.4h-33.5v118.3H1555V170h-33.6v168.3h-66.2V220h-33.7v152h230.8V220zM1432 438.2h204.7v33.6H1432v-33.6zm44.3 164v-30.5h103V647c-1.2 26-2.5 34-11.5 46.6l-.4.6L1588 730l1-.8c18-14.5 49-41 92-78.8l.5-.5-16.2-29-.7-1-51.6 44V538h-173v51.2c5 70-12.5 120-52 148.7h-.7l18.7 33 .7 1 1-1c49-41 72-98 68.6-169zm-221-273l20.4 35c52.2-52.2 96.8-115 130-183l-31.5-18c-32.4 66-73.2 123-119 166zm-9.2 211.4l19 32.4 1 1.2 1-1c20-23.3 40-47.8 58-73v292.3h34V444.8c15-27 30-57.4 44-90l1-1-32.3-18.6-.6 1c-31 78-72.5 146.5-122.6 203.8l-.4.6zm654-221.3v-33.6h-150c13-39 28-84.6 33-123.6h-35c-21 103-55 192-98 262l21 37 16-31c6-10 11-19 14-26 11 91 29 164 55 218-24.2 43-63 87-113 132l-.2 1 19 33 .4 1 1-1c53.3-50 90-93.6 109.6-130 22.2 39.6 60 87.6 103.5 132l1 1 20-34.6.3-.7-.6-.5c-47-44-84-91-104.5-130 38-69.5 62-172 71-304h36.8zM1775 581c-22-57-38.5-135-49-231 3.6-10.2 7.8-20.4 13-30.7h90c-7 109.8-25 197.8-54 261.8zm1528.8-297.3v-36H3017v-91h-37v91h-284.4v36H2980v119.6h-184.4V436s28.3 64 85.6 133.2c23 27.8 50.2 56.8 85 85.3-64.7 40-145.5 77.7-257.7 99.5l21.2 36.6s133-28.3 265.4-114c18 11.4 100 76.7 253 113l1 .2h1l15-28.2s-39.2-10.4-99-33.4c-41.6-16-93.6-40.2-143.4-74 74-54.7 140.3-132.8 180-233.7l-29.7-17.2h-155V283.7h287zm-145.4 151s-37 106-163.3 196.3c-60-46-122-113.4-162-196.2h326zM3764.8 746h-21v36l31.7-.2c35.7 0 55-7.6 70.3-22.8 14.8-14.8 22-37.4 21-67V354.8h97.5v-36.3H3867V163h-37v155.7h-299.5V355H3830v337c0 36.6-22.8 53.8-65.6 53.8zm-81.2-120l36-21c-19.3-39.4-45-91.5-77-155.5l-33 19c22.2 43.4 47 96 74 157.4z"/></svg>
